<?xml version="1.0" encoding="iso-8859-1"?>
<!-- Uploaded to: SVG Repo, www.svgrepo.com, Generator: SVG Repo Mixer Tools -->
<svg height="800px" width="800px" version="1.1" id="Layer_1" xmlns="http://www.w3.org/2000/svg" xmlns:xlink="http://www.w3.org/1999/xlink" 
	 viewBox="0 0 392.533 392.533" xml:space="preserve">
<path style="fill:#FFFFFF;" d="M313.309,147.071c-1.164-4.848-5.56-8.339-10.602-8.339H89.826c-5.042,0-9.438,3.426-10.602,8.339
	L31.321,343.79c-3.814,13.382,8.21,27.927,21.204,26.958h287.483c14.675,0.646,24.566-15.451,21.204-26.958L313.309,147.071z"/>
<path style="fill:#56ACE0;" d="M333.479,321.939l-35.232-144.743c-2.392-9.762-11.119-16.614-21.204-16.614H115.556
	c-10.02,0-18.747,6.853-21.204,16.614l-21.98,90.182h39.434c6.012,0,10.925,4.849,10.925,10.925c0,6.012-4.848,10.925-10.925,10.925
	H67.136l-6.982,28.509h26.958c6.012,0,10.925,4.848,10.925,10.925c0,6.012-4.848,10.925-10.925,10.925H62.416
	c3.879,5.624,10.343,9.438,17.907,9.438h231.952C326.368,348.897,336.776,335.644,333.479,321.939z"/>
<path style="fill:#194F82;" d="M267.798,159.224c-6.012,0-10.925,4.848-10.925,10.925v43.442c0,33.358-27.216,60.574-60.574,60.574
	s-60.574-27.216-60.574-60.574v-43.442c0-6.012-4.848-10.925-10.925-10.925s-10.925,4.848-10.925,10.925v43.442
	c0,45.446,36.913,82.36,82.36,82.36s82.36-36.913,82.36-82.36V170.15C278.659,164.137,273.81,159.224,267.798,159.224z"/>
<path style="fill:#FFC10D;" d="M129.067,89.018c0,9.568,2.069,19.135,6.077,27.927h71.499c-1.422-2.909-4.396-5.042-7.887-5.042
	h-4.848c-16.937,0-30.707-13.77-30.707-30.578c0-13.899,9.374-25.729,22.174-29.35v-5.689c0-6.012,4.848-10.925,10.925-10.925
	c6.077,0,10.925,4.848,10.925,10.925v4.461h11.184c6.012,0,10.925,4.848,10.925,10.925c0,6.012-4.848,10.925-10.925,10.925h-24.566
	c-4.848,0-8.792,3.943-8.792,8.792s3.943,8.792,8.792,8.792h4.848c15.709,0,28.509,11.766,30.384,26.828h28.251
	c4.008-8.727,6.077-18.295,6.077-27.927c0-37.107-30.125-67.232-67.232-67.232S129.067,51.911,129.067,89.018z"/>
<path style="fill:#194F82;" d="M382.416,338.618l-47.903-196.719c-3.556-14.675-16.679-24.954-31.741-24.954h-21.915
	c3.038-8.986,4.59-18.36,4.59-27.927C285.447,39.952,245.495,0,196.429,0S107.41,39.952,107.41,89.018
	c0,9.503,1.552,18.941,4.59,27.927H90.085c-15.127,0-28.186,10.279-31.741,24.954L10.247,338.618
	c-6.982,27.281,14.804,53.915,42.279,53.915h287.483C369.875,391.952,388.622,364.929,382.416,338.618z M340.008,370.747H52.525
	c-12.994,0.905-24.954-13.576-21.204-26.958l47.903-196.719c1.164-4.848,5.56-8.339,10.602-8.339h212.881
	c5.042,0,9.438,3.426,10.602,8.339l47.903,196.719C364.639,355.232,354.618,371.394,340.008,370.747z M263.467,89.018
	c0,9.568-2.069,19.135-6.077,27.927H229.14c-1.875-15.063-14.739-26.828-30.384-26.828h-4.848c-4.848,0-8.792-3.943-8.792-8.792
	c0-4.848,3.943-8.792,8.792-8.792h24.566c6.012,0,10.925-4.848,10.925-10.925c0-6.012-4.848-10.925-10.925-10.925h-11.248v-4.461
	c0-6.012-4.848-10.925-10.925-10.925c-6.012,0-10.925,4.848-10.925,10.925v5.689c-12.735,3.685-22.174,15.45-22.174,29.349
	c0,16.873,13.77,30.578,30.707,30.578h4.848c3.491,0,6.465,2.069,7.887,5.042h-71.434c-4.008-8.727-6.077-18.295-6.077-27.927
	c0-37.107,30.125-67.232,67.232-67.232S263.467,51.911,263.467,89.018z"/>
</svg>