<svg width="221" height="247" viewBox="0 0 221 247" fill="none" xmlns="http://www.w3.org/2000/svg">
<g clip-path="url(#clip0_14_25)">
<path d="M6.22114 239.406L17.1353 8.99158L211.223 133.651L6.22114 239.406Z" fill="#89E3F1" stroke="#29456D" stroke-width="8"/>
<path d="M101.468 90L69.0838 154L42.4598 187.792L37.5958 183.952C42.4598 178.747 46.1291 174.181 48.6038 170.256C51.1638 166.331 52.9558 162.363 53.9798 158.352C55.0038 154.427 55.5158 149.733 55.5158 144.272L39.3878 105.232L27.4838 98.32V94.352L49.3718 83.6L54.2358 102.928L69.8518 141.072L87.8998 103.568L70.8758 91.152L73.4358 86.032H101.468V90Z" fill="#29456D"/>
<path d="M83.3669 135.06L87.6389 130.012L106.767 90.2101L110.344 91.9289C111.994 102.284 113.494 110.295 114.842 115.961C116.153 121.704 117.459 125.881 118.759 128.495C120.06 131.108 121.594 132.839 123.363 133.69C125.825 134.872 128.36 134.718 130.971 133.227C133.658 131.773 135.833 129.315 137.496 125.854C139.344 122.008 139.599 116.356 138.261 108.896L143.745 108.123L146.599 125.826C146.21 127.817 145.461 129.966 144.352 132.273C141.247 138.734 137.656 143.351 133.577 146.125C129.538 149.012 125.75 149.606 122.212 147.906C117.059 145.429 112.315 133.729 107.98 112.805L97.7779 134.033L103.143 140.304L100.326 143.21L83.3669 135.06Z" fill="#29456D"/>
</g>
<defs>
<clipPath id="clip0_14_25">
<rect width="221" height="247" fill="white"/>
</clipPath>
</defs>
</svg>
